<svg id="Layer_1" data-name="Layer 1" xmlns="http://www.w3.org/2000/svg" width="36" height="36" viewBox="0 0 36 36"><defs><style>.cls-1{fill:#373a3f;}.cls-2{fill:#98c379;fill-rule:evenodd;}</style></defs><rect class="cls-1" x="-36" width="36" height="36" rx="2"/><rect class="cls-1" width="36" height="36" rx="2"/><path id="Fill-4" class="cls-2" d="M28.54,9.72,19.7,4.46a3.37,3.37,0,0,0-3.4,0L7.46,9.72a3.5,3.5,0,0,0-1.7,3V23.24a3.5,3.5,0,0,0,1.7,3l8.84,5.26a3.37,3.37,0,0,0,3.4,0l8.84-5.26a3.5,3.5,0,0,0,1.7-3V12.76A3.5,3.5,0,0,0,28.54,9.72ZM21.72,26.86a.25.25,0,0,1-.14.22l-.44.26c-.08,0-.14,0-.14-.1V26.5a1.46,1.46,0,0,1-1,.1s-.06-.08,0-.16l.16-.68a.17.17,0,0,1,.08-.14s0,0,0,0,0,0,.06,0a1.32,1.32,0,0,0,.94-.12,1.25,1.25,0,0,0,.7-1.06c0-.38-.22-.54-.72-.54s-1.24-.14-1.26-1.08a2.79,2.79,0,0,1,1-2.1v-.76a.31.31,0,0,1,.12-.24l.44-.26c.08,0,.14,0,.14.1v.76a1.29,1.29,0,0,1,.84-.1c.06,0,.08.08.06.18l-.16.66a.32.32,0,0,1-.08.14s0,0,0,0h-.08a1.12,1.12,0,0,0-.8.14,1,1,0,0,0-.62.9c0,.34.18.46.8.46.82,0,1.18.38,1.18,1.2a2.93,2.93,0,0,1-1.08,2.2Zm4.62-2c0,.06,0,.14-.08.16L24,26.36a.07.07,0,0,1-.12-.06v-.58c0-.06,0-.1.1-.14l2.2-1.32a.07.07,0,0,1,.12.06Zm1.52-12.92L19.5,17.1a2.86,2.86,0,0,0-1.8,2.54V30c0,.74.3,1.24.76,1.38a3.28,3.28,0,0,1-.46,0A2.88,2.88,0,0,1,16.6,31L7.76,25.74a2.89,2.89,0,0,1-1.4-2.5V12.76a2.89,2.89,0,0,1,1.4-2.5L16.6,5a2.77,2.77,0,0,1,2.8,0l8.84,5.26a2.9,2.9,0,0,1,1.36,2C29.3,11.64,28.64,11.48,27.86,11.92Z"/></svg>