<svg id="Layer_1" data-name="Layer 1" xmlns="http://www.w3.org/2000/svg" width="24" height="24" viewBox="0 0 24 24"><defs><style>.cls-1{fill:#373a3f;}.cls-2{fill:#98c379;fill-rule:evenodd;}</style></defs><rect class="cls-1" x="3" y="3" width="18" height="18" rx="2"/><path id="Fill-4" class="cls-2" d="M17.27,7.86,12.85,5.23a1.69,1.69,0,0,0-1.7,0L6.73,7.86a1.75,1.75,0,0,0-.85,1.52v5.24a1.75,1.75,0,0,0,.85,1.52l4.42,2.63a1.69,1.69,0,0,0,1.7,0l4.42-2.63a1.75,1.75,0,0,0,.85-1.52V9.38A1.75,1.75,0,0,0,17.27,7.86Zm-3.41,8.57a.12.12,0,0,1-.07.11l-.22.13s-.07,0-.07-.05v-.37a.73.73,0,0,1-.51.05s0,0,0-.08l.08-.34a.08.08,0,0,1,0-.07l0,0h0a.66.66,0,0,0,.47-.06A.63.63,0,0,0,14,15.2c0-.19-.11-.27-.36-.27s-.62-.07-.63-.54a1.39,1.39,0,0,1,.52-1.05V13a.16.16,0,0,1,.06-.12l.22-.13s.07,0,.07,0v.38a.64.64,0,0,1,.42-.05s0,0,0,.09l-.08.33a.16.16,0,0,1,0,.07l0,0h0a.56.56,0,0,0-.4.07.51.51,0,0,0-.31.45c0,.17.09.23.4.23s.59.19.59.6a1.47,1.47,0,0,1-.54,1.1Zm2.31-1s0,.07,0,.08L15,16.18a0,0,0,0,1-.06,0v-.29s0,0,0-.07l1.1-.66a0,0,0,0,1,.06,0ZM16.93,9l-4.18,2.59a1.43,1.43,0,0,0-.9,1.27V18c0,.37.15.62.38.69l-.23,0a1.44,1.44,0,0,1-.7-.19L6.88,15.87a1.44,1.44,0,0,1-.7-1.25V9.38a1.44,1.44,0,0,1,.7-1.25L11.3,5.5a1.38,1.38,0,0,1,1.4,0l4.42,2.63a1.45,1.45,0,0,1,.68,1C17.65,8.82,17.32,8.74,16.93,9Z"/></svg>