<svg id="Layer_1" data-name="Layer 1" xmlns="http://www.w3.org/2000/svg" width="36" height="36" viewBox="0 0 36 36"><defs><style>.cls-1{fill:#373a3f;}.cls-2{fill:#61afef;}</style></defs><rect class="cls-1" x="-36" y="-36" width="36" height="36" rx="2"/><rect class="cls-1" y="-36" width="36" height="36" rx="2"/><rect class="cls-1" x="36" y="-36" width="36" height="36" rx="2"/><rect class="cls-1" x="-36" width="36" height="36" rx="2"/><rect class="cls-1" width="36" height="36" rx="2"/><path class="cls-2" d="M27,11.53a10.16,10.16,0,0,0-5.77-2.16L21,9.7a13.77,13.77,0,0,1,5.12,2.61,16.83,16.83,0,0,0-10.34-1.93,2.09,2.09,0,0,0-.35,0,15.49,15.49,0,0,0-4.66,1.29c-.76.35-1.22.6-1.22.6a14,14,0,0,1,5.41-2.69l-.21-.25A10.16,10.16,0,0,0,9,11.53a27.49,27.49,0,0,0-3,12,7.45,7.45,0,0,0,6.27,3.12s.76-.92,1.37-1.71a6.38,6.38,0,0,1-3.59-2.42,5.53,5.53,0,0,0,.57.35.23.23,0,0,0,.09.06l.18.1a11,11,0,0,0,1.5.7,17.42,17.42,0,0,0,3,.89,14.55,14.55,0,0,0,5.32,0,13.93,13.93,0,0,0,3-.89,11.33,11.33,0,0,0,2.37-1.21A6.49,6.49,0,0,1,22.36,25c.61.78,1.35,1.66,1.35,1.66A7.51,7.51,0,0,0,30,23.51,27.49,27.49,0,0,0,27,11.53ZM14.25,20.25a2.29,2.29,0,0,1,0-4.56A2.18,2.18,0,0,1,16.35,18,2.19,2.19,0,0,1,14.25,20.25Zm7.5,0A2.29,2.29,0,1,1,23.85,18,2.21,2.21,0,0,1,21.75,20.25Z"/></svg>