<svg id="Layer_1" data-name="Layer 1" xmlns="http://www.w3.org/2000/svg" width="36" height="36" viewBox="0 0 36 36"><defs><style>.cls-1{fill:#373a3f;}.cls-2{fill:#d19a66;}</style></defs><rect class="cls-1" x="-36" width="36" height="36" rx="2"/><rect class="cls-1" width="36" height="36" rx="2"/><rect class="cls-1" x="36" width="36" height="36" rx="2"/><path class="cls-2" d="M30.58,19.42,19.42,30.58a2,2,0,0,1-2.84,0L5.42,19.42a2,2,0,0,1,0-2.84L13.3,8.7l2.78,2.78A1.49,1.49,0,0,0,16,12a2,2,0,0,0,1,1.72v8.56A2,2,0,0,0,16,24a2,2,0,1,0,3-1.74V14.4l3.1,3.1A1.38,1.38,0,0,0,22,18a2,2,0,1,0,2-2,1.38,1.38,0,0,0-.5.08l-3.58-3.56A1.49,1.49,0,0,0,20,12a2,2,0,0,0-1-1.74A2,2,0,0,0,18,10a1.49,1.49,0,0,0-.52.08L14.7,7.3l1.88-1.88a2,2,0,0,1,2.84,0L30.58,16.58A2,2,0,0,1,30.58,19.42Z"/><rect class="cls-1" x="-36" y="36" width="36" height="36" rx="2"/><rect class="cls-1" y="36" width="36" height="36" rx="2"/></svg>