<svg id="Layer_1" data-name="Layer 1" xmlns="http://www.w3.org/2000/svg" width="24" height="24" viewBox="0 0 24 24"><defs><style>.cls-1{fill:#373a3f;}.cls-2{fill:#d19a66;}</style></defs><rect class="cls-1" x="3" y="3" width="18" height="18" rx="2"/><path class="cls-2" d="M18.29,12.71l-5.58,5.58a1,1,0,0,1-1.42,0L5.71,12.71a1,1,0,0,1,0-1.42L9.65,7.35,11,8.74A.75.75,0,0,0,11,9a1,1,0,0,0,.49.86v4.28A1,1,0,0,0,11,15a1,1,0,1,0,1.49-.87V10.2L14,11.75A.69.69,0,0,0,14,12a1,1,0,1,0,1-1,.69.69,0,0,0-.25,0L13,9.26A.75.75,0,0,0,13,9a1,1,0,0,0-.51-.87A1,1,0,0,0,12,8a.75.75,0,0,0-.26,0L10.35,6.65l.94-.94a1,1,0,0,1,1.42,0l5.58,5.58A1,1,0,0,1,18.29,12.71Z"/></svg>