<svg id="Layer_1" data-name="Layer 1" xmlns="http://www.w3.org/2000/svg" width="24" height="24" viewBox="0 0 24 24"><defs><style>.cls-1{fill:#373a3f;}.cls-2{fill:#98c379;fill-rule:evenodd;}</style></defs><rect class="cls-1" x="3" y="3" width="18" height="18" rx="2"/><path class="cls-2" d="M12,6a6.08,6.08,0,0,0-6,6.15A6.14,6.14,0,0,0,10.1,18c.3.06.41-.13.41-.3s0-.53,0-1c-1.66.37-2-.83-2-.83a1.62,1.62,0,0,0-.66-.9c-.55-.38,0-.37,0-.37a1.26,1.26,0,0,1,.92.63,1.25,1.25,0,0,0,1.74.51,1.37,1.37,0,0,1,.38-.82,2.69,2.69,0,0,1-2.73-3,2.43,2.43,0,0,1,.62-1.65,2.26,2.26,0,0,1,.06-1.63s.5-.16,1.65.63a5.73,5.73,0,0,1,3,0c1.15-.79,1.65-.63,1.65-.63a2.26,2.26,0,0,1,.06,1.63,2.39,2.39,0,0,1,.62,1.65,2.7,2.7,0,0,1-2.74,3A1.5,1.5,0,0,1,13.5,16c0,.82,0,1.48,0,1.68s.11.36.41.3A6.15,6.15,0,0,0,18,12.15,6.08,6.08,0,0,0,12,6Z"/></svg>