<svg id="Layer_1" data-name="Layer 1" xmlns="http://www.w3.org/2000/svg" width="36" height="36" viewBox="0 0 36 36"><defs><style>.cls-1{fill:#373a3f;}.cls-2{fill:#98c379;fill-rule:evenodd;}</style></defs><rect class="cls-1" width="36" height="36" rx="2"/><path class="cls-2" d="M18,6A12.15,12.15,0,0,0,6,18.3,12.29,12.29,0,0,0,14.21,30c.6.11.82-.27.82-.59s0-1.07,0-2.1c-3.34.75-4-1.65-4-1.65a3.27,3.27,0,0,0-1.33-1.8c-1.09-.76.08-.74.08-.74a2.53,2.53,0,0,1,1.84,1.26,2.52,2.52,0,0,0,3.49,1,2.68,2.68,0,0,1,.76-1.65c-2.66-.31-5.47-1.36-5.47-6.08a4.82,4.82,0,0,1,1.24-3.3,4.52,4.52,0,0,1,.12-3.26s1-.33,3.3,1.26a11.18,11.18,0,0,1,6,0c2.3-1.59,3.3-1.26,3.3-1.26a4.52,4.52,0,0,1,.12,3.26,4.81,4.81,0,0,1,1.23,3.3c0,4.73-2.8,5.77-5.47,6.07A3,3,0,0,1,21,26c0,1.65,0,3,0,3.38s.21.71.82.59A12.29,12.29,0,0,0,30,18.3,12.15,12.15,0,0,0,18,6Z"/><rect class="cls-1" x="36" width="36" height="36" rx="2"/><rect class="cls-1" y="36" width="36" height="36" rx="2"/><rect class="cls-1" x="36" y="36" width="36" height="36" rx="2"/></svg>