<svg id="Layer_1" data-name="Layer 1" xmlns="http://www.w3.org/2000/svg" width="24" height="24" viewBox="0 0 24 24"><defs><style>.cls-1{fill:#373a3f;}.cls-2{fill:#61afef;}</style></defs><rect class="cls-1" x="3" y="3" width="18" height="18" rx="2"/><path class="cls-2" d="M10.43,15.28s-.46.27.32.36a6.83,6.83,0,0,0,2.49-.11,4.18,4.18,0,0,0,.66.32c-2.35,1-5.32,0-3.47-.57"/><path class="cls-2" d="M10.14,14s-.52.38.27.46a9.79,9.79,0,0,0,3.21-.16,1.41,1.41,0,0,0,.49.31c-2.84.83-6,.06-4-.61"/><path class="cls-2" d="M12.56,11.74A.87.87,0,0,1,12.41,13s1.47-.75.79-1.7S12.09,10,14.7,8.45c0,0-4.1,1-2.14,3.29"/><path class="cls-2" d="M15.66,16.25s.34.28-.37.5c-1.35.41-5.64.53-6.83,0-.43-.18.37-.44.62-.49a1.65,1.65,0,0,1,.42-.05c-.48-.34-3.08.66-1.32.94,4.79.78,8.73-.35,7.48-.91"/><path class="cls-2" d="M10.65,12.61s-2.19.51-.78.7a16.64,16.64,0,0,0,2.89,0c.9-.08,1.81-.24,1.81-.24a3.84,3.84,0,0,0-.55.3c-2.22.58-6.49.31-5.26-.29a4.12,4.12,0,0,1,1.89-.44"/><path class="cls-2" d="M14.56,14.79c2.25-1.17,1.21-2.29.48-2.14l-.26.07a.4.4,0,0,1,.2-.15c1.43-.51,2.54,1.49-.47,2.28a.16.16,0,0,0,.05-.06"/><path class="cls-2" d="M13.2,6S14.45,7.25,12,9.17c-1.95,1.53-.45,2.41,0,3.41-1.14-1-2-1.93-1.41-2.77C11.43,8.58,13.7,8,13.2,6"/><path class="cls-2" d="M10.87,18c2.16.14,5.48-.07,5.56-1.1,0,0-.16.39-1.79.7a17.44,17.44,0,0,1-5.47.08s.28.23,1.7.32"/></svg>