<svg id="Layer_1" data-name="Layer 1" xmlns="http://www.w3.org/2000/svg" width="36" height="36" viewBox="0 0 36 36"><defs><style>.cls-1{fill:#373a3f;}.cls-2{fill:#61afef;}</style></defs><rect class="cls-1" x="-36" width="36" height="36" rx="2"/><rect class="cls-1" width="36" height="36" rx="2"/><rect class="cls-1" x="36" width="36" height="36" rx="2"/><path class="cls-2" d="M14.85,24.56s-.92.53.65.71a13.59,13.59,0,0,0,5-.21,8.39,8.39,0,0,0,1.32.65c-4.7,2-10.63-.12-6.94-1.15"/><path class="cls-2" d="M14.28,21.93s-1,.76.54.93a19.5,19.5,0,0,0,6.41-.31,2.76,2.76,0,0,0,1,.6c-5.68,1.66-12,.13-7.94-1.22"/><path class="cls-2" d="M19.12,17.48A1.76,1.76,0,0,1,18.81,20s2.94-1.52,1.59-3.42-2.23-2.65,3-5.69c0,0-8.22,2-4.29,6.58"/><path class="cls-2" d="M25.33,26.5s.68.56-.75,1c-2.71.82-11.28,1.07-13.67,0-.85-.37.75-.89,1.26-1a3.39,3.39,0,0,1,.83-.09c-1-.67-6.16,1.31-2.65,1.88,9.58,1.56,17.46-.7,15-1.82"/><path class="cls-2" d="M15.29,19.21s-4.36,1-1.54,1.41a32.19,32.19,0,0,0,5.77-.06c1.8-.15,3.61-.48,3.61-.48a8.49,8.49,0,0,0-1.09.59c-4.43,1.17-13,.62-10.53-.57a8.36,8.36,0,0,1,3.78-.89"/><path class="cls-2" d="M23.12,23.58c4.5-2.34,2.42-4.58,1-4.28a2.77,2.77,0,0,0-.51.14.81.81,0,0,1,.38-.3c2.88-1,5.09,3-.92,4.56a.35.35,0,0,0,.09-.12"/><path class="cls-2" d="M20.4,6S22.9,8.49,18,12.33c-3.9,3.08-.89,4.83,0,6.84-2.27-2.06-3.94-3.86-2.82-5.54C16.85,11.16,21.41,10,20.4,6"/><path class="cls-2" d="M15.73,29.92c4.33.28,11-.15,11.12-2.19,0,0-.3.77-3.57,1.39a35.85,35.85,0,0,1-10.94.17s.55.45,3.39.63"/></svg>