<svg id="Layer_1" data-name="Layer 1" xmlns="http://www.w3.org/2000/svg" width="36" height="36" viewBox="0 0 36 36"><defs><style>.cls-1{fill:#373a3f;}.cls-2{fill:#e5c07b;}</style></defs><rect class="cls-1" x="-36" width="36" height="36" rx="2"/><rect class="cls-1" width="36" height="36" rx="2"/><rect class="cls-1" x="36" width="36" height="36" rx="2"/><path class="cls-2" d="M24.4,25.8a3.1,3.1,0,0,0,2.81,1.7c1.18,0,1.93-.58,1.93-1.38,0-1-.77-1.31-2.07-1.87l-.71-.3c-2.06-.86-3.43-1.95-3.43-4.24,0-2.1,1.63-3.71,4.18-3.71a4.22,4.22,0,0,1,4.05,2.25l-2.22,1.41a1.93,1.93,0,0,0-1.83-1.21,1.24,1.24,0,0,0-1.37,1.21c0,.84.53,1.18,1.76,1.7l.71.31c2.42,1,3.79,2.06,3.79,4.41C32,28.61,30,30,27.27,30a5.48,5.48,0,0,1-5.19-2.88ZM14.32,26c.45.78.86,1.45,1.84,1.45s1.52-.36,1.52-1.77V16.16h2.86v9.6c0,2.91-1.73,4.23-4.26,4.23A4.42,4.42,0,0,1,12,27.43Z"/></svg>