<svg id="Layer_1" data-name="Layer 1" xmlns="http://www.w3.org/2000/svg" width="24" height="24" viewBox="0 0 24 24"><defs><style>.cls-1{fill:#373a3f;}.cls-2{fill:#e5c07b;}</style></defs><rect class="cls-1" x="3" y="3" width="18" height="18" rx="2"/><path class="cls-2" d="M15.2,15.9a1.54,1.54,0,0,0,1.4.85c.6,0,1-.29,1-.69s-.39-.65-1-.93L16.18,15c-1-.44-1.71-1-1.71-2.12A1.89,1.89,0,0,1,16.55,11a2.11,2.11,0,0,1,2,1.13l-1.11.7a1,1,0,0,0-.92-.6.62.62,0,0,0-.68.6c0,.42.27.59.88.85l.35.15c1.22.51,1.9,1,1.9,2.21s-1,2-2.36,2A2.74,2.74,0,0,1,14,16.56Zm-5,.12c.22.39.43.72.92.72s.76-.18.76-.88V11.08h1.43v4.8A1.93,1.93,0,0,1,11.14,18,2.23,2.23,0,0,1,9,16.71Z"/></svg>