<svg id="Layer_1" data-name="Layer 1" xmlns="http://www.w3.org/2000/svg" width="36" height="36" viewBox="0 0 36 36"><defs><style>.cls-1{fill:#373a3f;}.cls-2{fill:#cad5e5;}.cls-3{fill:#222326;}.cls-4{fill:#d19a66;}.cls-5{fill:#996f4d;}</style></defs><rect class="cls-1" y="-36" width="36" height="36" rx="2"/><rect class="cls-1" x="36" y="-36" width="36" height="36" rx="2"/><rect class="cls-1" width="36" height="36" rx="2"/><rect class="cls-1" x="36" width="36" height="36" rx="2"/><polygon class="cls-2" points="15.13 12.8 15.2 14.32 14.14 16.3 12 20 12 22 13.35 26.08 16.05 27.61 20.15 27.61 23.99 24.7 25.71 20.14 21.74 15.31 20.62 12.6 15.13 12.8"/><path class="cls-3" d="M24.52,16.57c-1.06-1.52-1.92-2.45-2.38-4.37s.13-1.38-.27-3A5.16,5.16,0,0,0,21,7.25a2.49,2.49,0,0,0-1.12-.8,3.74,3.74,0,0,0-3.7.07c-1.79.92-1.59,2.91-1.26,6.94a2,2,0,0,1-.2.86,6.9,6.9,0,0,1-1.12,1.59,13.51,13.51,0,0,0-1.26,2c-.79,1.52-1.52,3.44-1.32,4.17.33-.07,4.5,6.28,4.5,6.41a19.51,19.51,0,0,1,2.38-.07,10.7,10.7,0,0,1,3.3.14c0-.2-.07-.4-.07-.6a7.65,7.65,0,0,1,.14-1.19c.06-.33.13-.66.2-1.06a6.68,6.68,0,0,1-3,1.46,3.86,3.86,0,0,1-3.44-1.13.45.45,0,0,0,.27-.06c.2-.07.39-.13.46-.27a.77.77,0,0,0-.07-.86c-.13-.19-1.12-.92-1.58-1.32s-.73-.59-1-.86l-.53-.53c-.13-.13-.2-.26-.27-.33a2.52,2.52,0,0,1-.13-1.25,5.45,5.45,0,0,1,.66-2c.13-.27.47-.8.47-.8s-1.13,2.78-.53,3.64a8.48,8.48,0,0,1,.33-1.72,6.56,6.56,0,0,1,.92-1.92,7.74,7.74,0,0,0,1.46-3.24c0-.46.06-.92.06-1.25-.26-.27,4.37-.93,4.63-.2.07.26,1,2.64,1.52,3.9a15.2,15.2,0,0,1,.79,1.78,10.8,10.8,0,0,1,.33,2.71,4.82,4.82,0,0,1-.06.86,3.19,3.19,0,0,0-.33-5.09,3.36,3.36,0,0,1,1.91,2.58C24.45,21.26,22.13,25.8,22,26c.07,0,3.11-2.82,3.18-2.82A3.3,3.3,0,0,0,26,23a4.62,4.62,0,0,0,.26-.93C26.7,20.53,25.57,18.09,24.52,16.57Z"/><ellipse class="cls-2" cx="16.12" cy="10.88" rx="0.86" ry="1.32"/><ellipse class="cls-2" cx="19.1" cy="10.82" rx="1.12" ry="1.52"/><ellipse class="cls-3" cx="16.14" cy="11.03" rx="0.46" ry="0.79" transform="translate(-1.26 2.11) rotate(-7.2)"/><ellipse class="cls-3" cx="19.03" cy="11.08" rx="0.66" ry="0.86"/><path class="cls-4" d="M27.82,25.62a2.52,2.52,0,0,1-1.12-.92c-.2-.33-.13-1.26-.47-1.66a.45.45,0,0,0-.52-.13c-.6.13-2,1.06-2.91,0a.91.91,0,0,0-.66-.33.58.58,0,0,0-.6.4,2.3,2.3,0,0,0-.13,1.12,11.57,11.57,0,0,1-.07,1.59c-.13,1.12-.33,1.78-.33,2.44a1.7,1.7,0,0,0,.47,1.39c.19.2.52.33,1.25.33a2.14,2.14,0,0,0,1.65-.72A11.71,11.71,0,0,1,25.9,28c.73-.46,1.85-1.06,2.05-1.25s.33-.2.33-.6A.57.57,0,0,0,27.82,25.62Z"/><path class="cls-4" d="M14.53,25.82c-.66-1.06-.72-1.26-1.18-1.92S12.09,22,11.56,22a1.12,1.12,0,0,0-.86.46,7.29,7.29,0,0,1-1,1.19c-.4.33-1.52.26-1.79.66s.27,1,.27,2c0,.4-.33.66-.4.93a1.13,1.13,0,0,0,0,.79c.27.4.6.53,2.84,1,1.19.27,2.32.93,3,1a1.59,1.59,0,0,0,2-1.78C15.72,27.14,15.13,26.88,14.53,25.82Z"/><path class="cls-4" d="M15.79,13.86c-.4-.27-.73-.53-.73-.93s.27-.53.66-.86a2.72,2.72,0,0,1,1.52-.73,5.5,5.5,0,0,1,1.92.6c.6.13,1.19.26,1.13.73-.07.66-.14.79-.8,1.12-.46.13-1.32.86-1.91.86a4.12,4.12,0,0,1-.93-.07A3.31,3.31,0,0,1,15.79,13.86Z"/><path class="cls-5" d="M15.66,13.33a1.49,1.49,0,0,0,.53.33l.33.13h.59a2.68,2.68,0,0,0,1.26-.4c.46-.2.53-.33.86-.46s.66-.4.53-.46-.27,0-.73.26a9.45,9.45,0,0,1-1.12.6,2.84,2.84,0,0,1-.67.2h-.59a1.49,1.49,0,0,1-.53-.14c-.13-.06-.2-.13-.26-.13s-.4-.33-.53-.4-.13,0-.07.07Z"/><path class="cls-5" d="M17.64,11.87c.07.14.2.14.27.2a.19.19,0,0,0,.13.07c.06-.07,0-.2-.07-.2S17.64,11.81,17.64,11.87Z"/><path class="cls-5" d="M16.58,12c0,.06.14.13.14.06s.13-.13.19-.13.07-.13-.13-.13S16.65,11.94,16.58,12Z"/></svg>