<svg id="Layer_1" data-name="Layer 1" xmlns="http://www.w3.org/2000/svg" width="24" height="24" viewBox="0 0 24 24"><defs><style>.cls-1{fill:#373a3f;}.cls-2{fill:#cad5e5;}.cls-3{fill:#222326;}.cls-4{fill:#d19a66;}.cls-5{fill:#996f4d;}</style></defs><rect class="cls-1" x="3" y="3" width="18" height="18" rx="2"/><polygon class="cls-2" points="10.56 9.4 10.6 10.16 10.07 11.15 9 13 9 14 9.67 16.04 11.03 16.8 13.08 16.8 14.99 15.35 15.85 13.07 13.87 10.65 13.31 9.3 10.56 9.4"/><path class="cls-3" d="M15.26,11.28A5.79,5.79,0,0,1,14.07,9.1c-.23-1,.06-.69-.13-1.52a2.69,2.69,0,0,0-.43-1,1.2,1.2,0,0,0-.57-.39,1.87,1.87,0,0,0-1.85,0c-.89.46-.79,1.45-.62,3.47a1.12,1.12,0,0,1-.1.43A3.55,3.55,0,0,1,9.8,11a6,6,0,0,0-.62,1,4.39,4.39,0,0,0-.66,2.08,27.14,27.14,0,0,1,2.24,3.21,8.7,8.7,0,0,1,1.19,0,5.58,5.58,0,0,1,1.66.07c0-.1,0-.2,0-.3a4.48,4.48,0,0,1,.07-.59c0-.17.06-.33.1-.53a3.41,3.41,0,0,1-1.49.72A1.92,1.92,0,0,1,10.53,16a.21.21,0,0,0,.13,0,.46.46,0,0,0,.24-.13.4.4,0,0,0,0-.43,8.69,8.69,0,0,0-.79-.66l-.5-.43-.26-.27a1.13,1.13,0,0,1-.13-.16,1.24,1.24,0,0,1-.07-.63,2.76,2.76,0,0,1,.33-1l.23-.4s-.56,1.39-.26,1.82a4.44,4.44,0,0,1,.16-.86,3.18,3.18,0,0,1,.47-1,3.93,3.93,0,0,0,.72-1.62c0-.23,0-.46,0-.63s2.18-.46,2.31-.1c0,.14.5,1.33.76,1.95a8.17,8.17,0,0,1,.4.9,5.37,5.37,0,0,1,.16,1.35,2.38,2.38,0,0,1,0,.43,1.6,1.6,0,0,0-.17-2.54,1.68,1.68,0,0,1,1,1.29A11.6,11.6,0,0,1,14,16s1.56-1.41,1.59-1.41a1.71,1.71,0,0,0,.4-.1,2.64,2.64,0,0,0,.13-.46A3.94,3.94,0,0,0,15.26,11.28Z"/><ellipse class="cls-2" cx="11.06" cy="8.44" rx="0.43" ry="0.66"/><ellipse class="cls-2" cx="12.55" cy="8.41" rx="0.56" ry="0.76"/><ellipse class="cls-3" cx="11.07" cy="8.51" rx="0.23" ry="0.4" transform="translate(-0.98 1.46) rotate(-7.2)"/><ellipse class="cls-3" cx="12.51" cy="8.54" rx="0.33" ry="0.43"/><path class="cls-4" d="M16.91,15.81a1.28,1.28,0,0,1-.56-.46c-.1-.17-.07-.63-.23-.83a.24.24,0,0,0-.27-.06c-.29.06-1,.52-1.45,0a.46.46,0,0,0-.33-.17.3.3,0,0,0-.3.2,1.07,1.07,0,0,0-.07.56,6.61,6.61,0,0,1,0,.79c-.06.57-.16.9-.16,1.23a.86.86,0,0,0,.23.69.82.82,0,0,0,.63.17,1.07,1.07,0,0,0,.82-.37A7.86,7.86,0,0,1,16,17c.37-.23.93-.53,1-.63a.33.33,0,0,0,.16-.29A.28.28,0,0,0,16.91,15.81Z"/><path class="cls-4" d="M10.27,15.91c-.33-.53-.37-.63-.6-1S9,14,8.78,14a.56.56,0,0,0-.43.23,3.1,3.1,0,0,1-.5.6c-.19.16-.76.13-.89.33s.13.5.13,1c0,.2-.16.33-.19.46a.5.5,0,0,0,0,.4c.13.2.29.27,1.42.5.59.13,1.15.46,1.52.49a.79.79,0,0,0,1-.89C10.86,16.57,10.56,16.44,10.27,15.91Z"/><path class="cls-4" d="M10.9,9.93c-.2-.13-.37-.27-.37-.46s.13-.27.33-.43a1.31,1.31,0,0,1,.76-.37,2.58,2.58,0,0,1,1,.3c.3.07.6.13.56.36s-.06.4-.39.56-.66.43-1,.43a2.37,2.37,0,0,1-.46,0A1.67,1.67,0,0,1,10.9,9.93Z"/><path class="cls-5" d="M10.83,9.66a.65.65,0,0,0,.26.17l.17.06h.3a1.35,1.35,0,0,0,.62-.19c.24-.1.27-.17.43-.23s.33-.2.27-.24-.13,0-.37.14a4.25,4.25,0,0,1-.56.29,1,1,0,0,1-.33.1h-.29a.88.88,0,0,1-.27-.06c-.07,0-.1-.07-.13-.07s-.2-.16-.27-.2-.06,0,0,0Z"/><path class="cls-5" d="M11.82,8.94c0,.06.1.06.13.1a.13.13,0,0,0,.07,0S12,9,12,9,11.82,8.9,11.82,8.94Z"/><path class="cls-5" d="M11.29,9s.07.07.07,0,.06-.07.1-.07,0-.07-.07-.07S11.33,9,11.29,9Z"/></svg>