<svg id="Layer_1" data-name="Layer 1" xmlns="http://www.w3.org/2000/svg" width="36" height="36" viewBox="0 0 36 36"><defs><style>.cls-1{fill:#373a3f;}.cls-2{fill:#56b6c2;}</style></defs><rect class="cls-1" x="-36" y="-36" width="36" height="36" rx="2"/><rect class="cls-1" y="-36" width="36" height="36" rx="2"/><rect class="cls-1" x="36" y="-36" width="36" height="36" rx="2"/><rect class="cls-1" x="-36" width="36" height="36" rx="2"/><rect class="cls-1" width="36" height="36" rx="2"/><path class="cls-2" d="M8,18.5C8,12.23,11.85,8.08,18.56,8.08c6.2,0,9.86,3.83,9.86,9.38,0,3.83-1.28,6.54-4.65,6.73-1.81.13-2.53-.6-2.7-1.68H21c-.37.94-2,1.68-3.73,1.58-2.46-.13-4.55-2-4.57-5.68s2.26-5.33,4.34-5.63c1.76-.27,3.41.38,3.68,1.07h.11V13h2.44v7.61c0,.73.33,1.14.87,1.14,1.08,0,1.64-1.39,1.63-4.44,0-4.9-3.48-6.69-7.23-6.69-5.18,0-7.73,3.36-7.74,7.82,0,4.93,2.77,7.63,7.86,7.63a13.11,13.11,0,0,0,4.42-.8l.77,2.26a12.59,12.59,0,0,1-5.37,1.08C11.82,28.58,8,24.87,8,18.5Zm12.66-.21c0-1.87-.6-2.91-2.58-2.91-1.73,0-2.7,1.16-2.71,2.94s.69,3.21,2.73,3.21S20.68,20.41,20.66,18.29Z"/></svg>