<svg id="Layer_1" data-name="Layer 1" xmlns="http://www.w3.org/2000/svg" width="24" height="24" viewBox="0 0 24 24"><defs><style>.cls-1{fill:#373a3f;}.cls-2{fill:#56b6c2;}</style></defs><rect class="cls-1" x="3" y="3" width="18" height="18" rx="2"/><path class="cls-2" d="M7,12.25A4.88,4.88,0,0,1,12.29,7c3.11,0,4.94,1.93,4.94,4.7,0,1.92-.64,3.28-2.33,3.37-.91.07-1.26-.3-1.35-.84H13.5a1.89,1.89,0,0,1-1.86.8C10.4,15,9.35,14,9.35,12.2a2.61,2.61,0,0,1,2.17-2.82c.88-.13,1.71.19,1.84.53h.06V9.48h1.22v3.81c0,.36.17.57.44.57.54,0,.82-.7.81-2.23,0-2.45-1.74-3.35-3.62-3.35A3.61,3.61,0,0,0,8.39,12.2C8.4,14.67,9.78,16,12.33,16a6.62,6.62,0,0,0,2.22-.4l.38,1.13a6.26,6.26,0,0,1-2.69.54C8.92,17.29,7,15.44,7,12.25Zm6.34-.11c0-.94-.3-1.46-1.29-1.46a1.32,1.32,0,0,0-1.36,1.47c0,.83.35,1.61,1.37,1.61S13.35,13.2,13.34,12.14Z"/></svg>