<svg id="Layer_1" data-name="Layer 1" xmlns="http://www.w3.org/2000/svg" width="24" height="24" viewBox="0 0 24 24"><defs><style>.cls-1{fill:#373a3f;}.cls-2{fill:#61afef;}.cls-3{fill:#e5c07b;}</style></defs><rect class="cls-1" x="3" y="3" width="18" height="18" rx="2"/><path id="path1948" class="cls-2" d="M11.93,6a7.31,7.31,0,0,0-1.38.12c-1.23.21-1.45.66-1.45,1.49V8.7H12v.36H8A1.81,1.81,0,0,0,6.2,10.51a5.42,5.42,0,0,0,0,2.91c.21.85.7,1.45,1.54,1.45h1V13.56a1.82,1.82,0,0,1,1.81-1.77h2.89a1.45,1.45,0,0,0,1.44-1.46V7.61a1.6,1.6,0,0,0-1.44-1.49A9.7,9.7,0,0,0,11.93,6Zm-1.57.88a.55.55,0,1,1,0,1.09.55.55,0,0,1,0-1.09Z"/><path id="path1950" class="cls-3" d="M15.24,9.06v1.27a1.84,1.84,0,0,1-1.8,1.82H10.55A1.46,1.46,0,0,0,9.1,13.6v2.73c0,.77.68,1.23,1.45,1.45a4.82,4.82,0,0,0,2.89,0c.73-.21,1.44-.63,1.44-1.45V15.24H12v-.37h4.34c.84,0,1.16-.58,1.45-1.45a4.88,4.88,0,0,0,0-2.91c-.21-.83-.61-1.45-1.45-1.45ZM13.62,16a.55.55,0,0,1,.54.55.54.54,0,1,1-1.08,0A.55.55,0,0,1,13.62,16Z"/></svg>