<svg id="Layer_1" data-name="Layer 1" xmlns="http://www.w3.org/2000/svg" width="36" height="36" viewBox="0 0 36 36"><defs><style>.cls-1{fill:#373a3f;}.cls-2{fill:#61afef;}.cls-3{fill:#e5c07b;}</style></defs><rect class="cls-1" x="-36" width="36" height="36" rx="2"/><rect class="cls-1" width="36" height="36" rx="2"/><rect class="cls-1" x="36" width="36" height="36" rx="2"/><path id="path1948" class="cls-2" d="M17.86,6a16.86,16.86,0,0,0-2.77.23c-2.45.43-2.89,1.33-2.89,3v2.18H18v.73H10A3.6,3.6,0,0,0,6.41,15a10.56,10.56,0,0,0,0,5.82c.41,1.7,1.39,2.9,3.07,2.9h2V21.13a3.67,3.67,0,0,1,3.62-3.56h5.78a2.9,2.9,0,0,0,2.9-2.91V9.21a3.22,3.22,0,0,0-2.9-3A19.07,19.07,0,0,0,17.86,6ZM14.73,7.76a1.09,1.09,0,1,1-1.09,1.09A1.09,1.09,0,0,1,14.73,7.76Z"/><path id="path1950" class="cls-3" d="M24.49,12.12v2.54a3.69,3.69,0,0,1-3.62,3.63H15.09A2.93,2.93,0,0,0,12.2,21.2v5.45c0,1.56,1.36,2.47,2.89,2.91a9.72,9.72,0,0,0,5.78,0c1.46-.41,2.9-1.25,2.9-2.91V24.47H18v-.73h8.67c1.68,0,2.31-1.16,2.9-2.9a9.83,9.83,0,0,0,0-5.82c-.42-1.65-1.21-2.9-2.9-2.9ZM21.24,25.93a1.09,1.09,0,0,1,0,2.18,1.09,1.09,0,1,1,0-2.18Z"/><rect class="cls-1" x="-36" y="36" width="36" height="36" rx="2"/></svg>