<svg id="Layer_1" data-name="Layer 1" xmlns="http://www.w3.org/2000/svg" width="24" height="24" viewBox="0 0 24 24"><defs><style>.cls-1{fill:#373a3f;}.cls-2{fill:#c678dd;}</style></defs><rect class="cls-1" x="3" y="3" width="18" height="18" rx="2"/><path class="cls-2" d="M17,7.47c-.36-1.41-2.7-1.88-4.91-1.09A11.12,11.12,0,0,0,8.31,8.54C7.09,9.68,6.89,10.67,7,11.09c.29,1.46,2.29,2.42,3.11,3.13h0c-.24.12-2,1-2.43,1.94s.07,1.67.4,1.76a2.49,2.49,0,0,0,2.69-1.09A2.73,2.73,0,0,0,11,14.4a3.12,3.12,0,0,1,1.22-.07c1.39.16,1.66,1,1.61,1.39a.9.9,0,0,1-.44.63c-.1.06-.13.08-.12.12s.06.07.14.05a1.09,1.09,0,0,0,.76-1A2,2,0,0,0,12,13.77a3.9,3.9,0,0,0-1.25.17l-.06-.07c-.89-.95-2.55-1.63-2.47-2.91,0-.47.18-1.69,3.17-3.18,2.45-1.22,4.41-.89,4.75-.14.49,1.06-1.05,3-3.59,3.32a1.92,1.92,0,0,1-1.61-.41c-.13-.14-.15-.15-.2-.12s0,.17,0,.25a1.5,1.5,0,0,0,.92.72,4.82,4.82,0,0,0,3-.29C16.13,10.51,17.33,8.85,17,7.47Zm-6.56,7.18a2,2,0,0,1,0,1.19.61.61,0,0,1-.05.12.54.54,0,0,1,0,.11,2.31,2.31,0,0,1-.36.54c-.46.5-1.11.69-1.39.53s-.14-.88.39-1.45a5.73,5.73,0,0,1,1.4-1h0Z"/></svg>