<svg id="Layer_1" data-name="Layer 1" xmlns="http://www.w3.org/2000/svg" width="36" height="36" viewBox="0 0 36 36"><defs><style>.cls-1{fill:#373a3f;}.cls-2{fill:#c678dd;}</style></defs><rect class="cls-1" x="-36" width="36" height="36" rx="2"/><rect class="cls-1" width="36" height="36" rx="2"/><rect class="cls-1" x="36" width="36" height="36" rx="2"/><path class="cls-2" d="M28,8.94c-.72-2.82-5.39-3.75-9.82-2.18a22.44,22.44,0,0,0-7.53,4.32C8.17,13.36,7.79,15.35,8,16.17c.56,2.93,4.57,4.84,6.22,6.26h0c-.49.24-4.05,2-4.88,3.88s.14,3.33.82,3.52a5,5,0,0,0,5.38-2.18A5.44,5.44,0,0,0,16,22.8a6.23,6.23,0,0,1,2.43-.14c2.79.32,3.33,2.06,3.23,2.79a1.86,1.86,0,0,1-.88,1.25c-.2.12-.26.16-.24.25s.11.12.28.1a2.18,2.18,0,0,0,1.51-1.94c.07-1.7-1.56-3.61-4.46-3.56a7.68,7.68,0,0,0-2.48.33l-.12-.13c-1.79-1.91-5.1-3.26-5-5.83.05-.93.38-3.39,6.35-6.37,4.9-2.44,8.82-1.77,9.5-.28,1,2.13-2.09,6.08-7.18,6.65a3.8,3.8,0,0,1-3.21-.81c-.27-.3-.31-.31-.41-.25s-.06.35,0,.5a3,3,0,0,0,1.84,1.45,9.83,9.83,0,0,0,6-.59C26.26,15,28.67,11.71,28,8.94ZM14.85,23.3a4.08,4.08,0,0,1,0,2.38l-.09.23-.1.24a4.46,4.46,0,0,1-.74,1.07c-.92,1-2.21,1.38-2.76,1.06s-.3-1.76.77-2.89a10.65,10.65,0,0,1,2.81-2h0Z"/></svg>