<svg id="Layer_1" data-name="Layer 1" xmlns="http://www.w3.org/2000/svg" width="36" height="36" viewBox="0 0 36 36"><defs><style>.cls-1{fill:#373a3f;}.cls-2{fill:#c678dd;}</style></defs><rect class="cls-1" x="-36" width="36" height="36" rx="2"/><rect class="cls-1" width="36" height="36" rx="2"/><path class="cls-2" d="M15.38,30,14.87,8.14a7.32,7.32,0,0,0-3.52,2.64,7.67,7.67,0,0,0-1.25,4.47,5.5,5.5,0,0,0,.07,1,6.06,6.06,0,0,0,.15.61,3.27,3.27,0,0,0,.14.34.49.49,0,0,1,.08.22,6.52,6.52,0,0,1-1.47-.15A2.89,2.89,0,0,1,8,16.73a2.27,2.27,0,0,1-.65-1,4.14,4.14,0,0,1-.22-1.47,5.18,5.18,0,0,1,.45-2.09,7.68,7.68,0,0,1,1.27-2,11.14,11.14,0,0,1,1.89-1.71,13.71,13.71,0,0,1,2.32-1.34,13.3,13.3,0,0,1,2.6-.89A11.4,11.4,0,0,1,18.35,6L19,6l.62,0,.28,19.69L26.65,6.16h2.23L20,30Z"/></svg>