<svg id="Layer_1" data-name="Layer 1" xmlns="http://www.w3.org/2000/svg" width="24" height="24" viewBox="0 0 24 24"><defs><style>.cls-1{fill:#373a3f;}.cls-2{fill:#c678dd;}</style></defs><rect class="cls-1" x="3" y="3" width="18" height="18" rx="2"/><path class="cls-2" d="M10.69,18,10.43,7.07A3.61,3.61,0,0,0,8.68,8.39a3.79,3.79,0,0,0-.63,2.23,3.34,3.34,0,0,0,0,.5,2.7,2.7,0,0,0,.08.31l.07.17a.19.19,0,0,1,0,.11,3.13,3.13,0,0,1-.73-.08A1.24,1.24,0,0,1,7,11.37a1.21,1.21,0,0,1-.33-.48,2.2,2.2,0,0,1-.11-.73,2.43,2.43,0,0,1,.23-1.05,3.88,3.88,0,0,1,.63-1,6,6,0,0,1,.94-.85,7.53,7.53,0,0,1,1.17-.67,7.3,7.3,0,0,1,1.29-.45A5.8,5.8,0,0,1,12.18,6h.32l.32,0L13,15.87l3.36-9.79h1.12L13,18Z"/></svg>